<?xml version="1.0" standalone="no"?>
<!DOCTYPE svg PUBLIC "-//W3C//DTD SVG 20010904//EN"
 "http://www.w3.org/TR/2001/REC-SVG-20010904/DTD/svg10.dtd">
<svg version="1.0" xmlns="http://www.w3.org/2000/svg"
 width="2000.000000pt" height="2000.000000pt" viewBox="0 0 2000.000000 2000.000000"
 preserveAspectRatio="xMidYMid meet">

<g transform="translate(0.000000,2000.000000) scale(0.100000,-0.100000)"
fill="#000000" stroke="none">
<path d="M7942 16249 c-1737 -111 -3293 -1148 -4057 -2704 -262 -535 -412
-1049 -481 -1655 -22 -191 -27 -709 -9 -910 93 -1006 472 -1934 1103 -2698
132 -159 419 -451 576 -585 582 -499 1260 -849 2004 -1036 411 -104 803 -147
1270 -139 l267 4 -3 -1540 c-1 -931 1 -1542 7 -1545 5 -3 158 -5 340 -3 l331
3 0 1594 c0 1530 1 1595 18 1595 30 0 318 76 457 120 292 94 657 255 925 411
299 173 576 379 915 683 55 49 1118 1107 2363 2350 l2262 2261 0 -4507 0
-4507 331 -3 c182 -2 333 -1 335 1 2 2 4 2194 4 4870 l0 4866 -452 -3 -453 -2
-2355 -2353 c-1295 -1294 -2407 -2399 -2470 -2454 -463 -408 -842 -656 -1282
-843 -134 -56 -360 -136 -484 -170 -44 -12 -87 -24 -96 -26 -17 -5 -18 121
-18 2558 l0 2563 1260 -1260 1260 -1260 241 241 240 240 -1376 1372 c-756 755
-1386 1378 -1398 1384 -17 10 -124 12 -464 10 l-443 -2 0 -2979 0 -2979 -27
-7 c-42 -11 -482 -14 -618 -4 -744 52 -1407 281 -2045 704 -1001 665 -1688
1771 -1834 2955 -33 267 -42 644 -21 850 2 25 7 74 10 110 66 718 364 1473
824 2085 627 834 1571 1423 2583 1609 279 52 398 61 773 61 307 -1 371 -3 520
-24 547 -73 1054 -239 1509 -495 65 -36 120 -65 121 -64 1 2 73 120 160 263
86 143 164 271 173 284 18 30 20 28 -128 111 -556 313 -1216 518 -1880 585
-185 19 -600 26 -788 14z"/>
</g>
</svg>
