<?xml version="1.0" encoding="UTF-8"?>
<svg xmlns="http://www.w3.org/2000/svg" xmlns:xlink="http://www.w3.org/1999/xlink" width="15pt" height="15pt" viewBox="0 0 15 15" version="1.1">
<g id="surface1">
<path style=" stroke:none;fill-rule:nonzero;fill:rgb(0%,49.803922%,70.980392%);fill-opacity:1;" d="M 2.625 0 L 12.375 0 C 13.824219 0 15 1.175781 15 2.625 L 15 12.375 C 15 13.824219 13.824219 15 12.375 15 L 2.625 15 C 1.175781 15 0 13.824219 0 12.375 L 0 2.625 C 0 1.175781 1.175781 0 2.625 0 Z M 2.625 0 "/>
<path style=" stroke:none;fill-rule:nonzero;fill:rgb(100%,100%,100%);fill-opacity:1;" d="M 2.105469 5.515625 L 4.222656 5.515625 L 4.222656 13.1875 L 2.105469 13.1875 Z M 2.105469 5.515625 "/>
<path style=" stroke:none;fill-rule:nonzero;fill:rgb(100%,100%,100%);fill-opacity:1;" d="M 11.296875 5.515625 C 9.734375 4.921875 8.605469 5.929688 8.125 6.492188 L 8.125 5.515625 L 6.015625 5.515625 L 6.015625 13.1875 L 8.125 13.1875 L 8.125 9.140625 C 8.113281 8.628906 8.296875 8.128906 8.644531 7.753906 C 8.847656 7.515625 9.136719 7.375 9.445312 7.363281 C 9.789062 7.355469 10.125 7.488281 10.367188 7.734375 C 10.632812 8.007812 10.773438 8.375 10.765625 8.753906 L 10.765625 13.1875 L 13.148438 13.1875 L 13.148438 8.4375 C 13.148438 8.4375 13.414062 6.308594 11.296875 5.515625 Z M 11.296875 5.515625 "/>
<path style=" stroke:none;fill-rule:nonzero;fill:rgb(100%,100%,100%);fill-opacity:1;" d="M 4.484375 3.136719 C 4.484375 3.867188 3.894531 4.457031 3.164062 4.457031 C 2.433594 4.457031 1.84375 3.867188 1.84375 3.136719 C 1.84375 2.40625 2.433594 1.8125 3.164062 1.8125 C 3.894531 1.8125 4.484375 2.40625 4.484375 3.136719 Z M 4.484375 3.136719 "/>
</g>
</svg>
